<svg width="91" height="10" viewBox="0 0 91 10" fill="none" xmlns="http://www.w3.org/2000/svg">
<path d="M0.941162 5.19928C0.941162 2.714 2.95588 0.69928 5.44116 0.69928H86.4412C88.9264 0.69928 90.9412 2.714 90.9412 5.19928V5.19928C90.9412 7.68456 88.9264 9.69928 86.4412 9.69928H5.44116C2.95588 9.69928 0.941162 7.68456 0.941162 5.19928V5.19928Z" fill="#A3A8AF"/>
<path d="M0.941162 5.19928C0.941162 2.714 2.95588 0.69928 5.44116 0.69928H18.9412C21.4264 0.69928 23.4412 2.714 23.4412 5.19928V5.19928C23.4412 7.68456 21.4264 9.69928 18.9412 9.69928H5.44116C2.95588 9.69928 0.941162 7.68456 0.941162 5.19928V5.19928Z" fill="#EB5757"/>
</svg>
