<svg width="91" height="10" viewBox="0 0 91 10" fill="none" xmlns="http://www.w3.org/2000/svg">
<path d="M0.941162 4.99792C0.941162 2.51264 2.95588 0.497925 5.44116 0.497925H86.4412C88.9264 0.497925 90.9412 2.51264 90.9412 4.99792V4.99792C90.9412 7.48321 88.9264 9.49792 86.4412 9.49792H5.44116C2.95588 9.49792 0.941162 7.48321 0.941162 4.99792V4.99792Z" fill="#A3A8AF"/>
<path d="M0.941162 4.99792C0.941162 2.51264 2.95588 0.497925 5.44116 0.497925H41.4412C43.9264 0.497925 45.9412 2.51264 45.9412 4.99792V4.99792C45.9412 7.48321 43.9264 9.49792 41.4412 9.49792H5.44116C2.95588 9.49792 0.941162 7.48321 0.941162 4.99792V4.99792Z" fill="#F2C94C"/>
</svg>
