<svg width="91" height="10" viewBox="0 0 91 10" fill="none" xmlns="http://www.w3.org/2000/svg">
<path d="M0.941162 4.79694C0.941162 2.31165 2.95588 0.296936 5.44116 0.296936H86.4412C88.9264 0.296936 90.9412 2.31165 90.9412 4.79694V4.79694C90.9412 7.28222 88.9264 9.29694 86.4412 9.29694H5.44116C2.95588 9.29694 0.941162 7.28222 0.941162 4.79694V4.79694Z" fill="#A3A8AF"/>
<path d="M0.941162 4.79694C0.941162 2.31165 2.95588 0.296936 5.44116 0.296936H63.9412C66.4264 0.296936 68.4412 2.31165 68.4412 4.79694V4.79694C68.4412 7.28222 66.4264 9.29694 63.9412 9.29694H5.44116C2.95588 9.29694 0.941162 7.28222 0.941162 4.79694V4.79694Z" fill="#F2C94C"/>
</svg>
