<svg width="51" height="51" viewBox="0 0 51 51" fill="none" xmlns="http://www.w3.org/2000/svg">
<circle cx="25.9412" cy="25.3379" r="25" fill="#0099FF"/>
<path d="M37.6825 22.6189H28.8456V13.5039C28.8456 12.546 28.3512 12.0516 27.3934 12.0516H24.5198C23.562 12.0516 23.0676 12.546 23.0676 13.5039V22.6189H14.1689C13.2111 22.6189 12.7167 23.1132 12.7167 24.0711V26.6047C12.7167 27.5626 13.2111 28.0569 14.1689 28.0569H23.0676V37.1719C23.0676 38.1298 23.562 38.6242 24.5198 38.6242H27.3934C28.3512 38.6242 28.8456 38.1298 28.8456 37.1719V28.0569H37.6825C38.6713 28.0569 39.1656 27.5626 39.1656 26.6047V24.0711C39.1347 23.1132 38.6404 22.6189 37.6825 22.6189Z" fill="#F2F2F2"/>
</svg>
