<svg width="63" height="27" viewBox="0 0 63 27" fill="none" xmlns="http://www.w3.org/2000/svg">
<path d="M8.41507 19.6068L1.41507 12.6068L8.41507 5.60681" stroke="#F2F2F2" stroke-width="1.5" stroke-linecap="round" stroke-linejoin="round"/>
<path d="M25.135 12.0873V11.9691C25.8762 11.808 26.467 11.432 26.9074 10.8304C27.3479 10.2289 27.5627 9.49841 27.5627 8.6283C27.5627 7.51111 27.1975 6.60876 26.4778 5.91052C25.758 5.21228 24.8127 4.86853 23.6418 4.86853H18.3674C18.1311 4.86853 18.0129 4.98669 18.0129 5.22302V19.2523C18.0129 19.4886 18.1311 19.6068 18.3674 19.6068H24.0822C25.2746 19.6068 26.2199 19.2523 26.9289 18.5433C27.6379 17.8344 27.9924 16.889 27.9924 15.7181C27.9924 14.7621 27.7346 13.9564 27.2082 13.3119C26.6819 12.6674 25.9836 12.2592 25.1135 12.098L25.135 12.0873ZM23.3303 6.11462C24.1789 6.11462 24.8664 6.37244 25.382 6.87732C25.8977 7.3822 26.1555 8.04822 26.1555 8.87537C26.1555 9.68103 25.8977 10.3256 25.382 10.809C24.8664 11.2924 24.1789 11.5394 23.3303 11.5394H19.3772V6.13611L23.3303 6.11462ZM23.7707 18.4037H19.3772V12.6888H23.7707C24.6194 12.6888 25.3069 12.9467 25.8225 13.4623C26.3381 13.9779 26.5959 14.6761 26.5959 15.5463C26.5959 16.4164 26.3381 17.1146 25.8225 17.6302C25.3069 18.1459 24.6194 18.4037 23.7707 18.4037ZM34.8244 8.33826C33.6213 8.33826 32.633 8.61755 31.8703 9.17615C31.1076 9.73474 30.7209 10.4867 30.7209 11.4213C30.7209 11.6469 30.8283 11.7543 31.0539 11.7543H31.6985C31.8811 11.7543 31.9992 11.6469 32.0422 11.4213C32.0852 10.8197 32.3537 10.347 32.8479 10.014C33.342 9.68103 33.9865 9.50916 34.7922 9.50916C35.6838 9.50916 36.3928 9.74548 36.9192 10.2181C37.4455 10.6908 37.7033 11.3138 37.7033 12.098V13.5052H33.9865C32.8371 13.5052 31.9348 13.7953 31.2688 14.3646C30.6028 14.934 30.2697 15.7074 30.2697 16.6957C30.2697 17.684 30.6028 18.4681 31.2688 19.0375C31.9348 19.6068 32.8371 19.8969 33.9865 19.8969C34.8996 19.8969 35.6731 19.7142 36.3069 19.349C36.9406 18.9838 37.3811 18.4789 37.6281 17.8344H37.7356V19.306C37.7248 19.5316 37.8322 19.639 38.0578 19.639H38.6594C38.885 19.639 38.9924 19.5316 38.9924 19.306V11.9799C38.9924 10.8842 38.6164 10.014 37.8537 9.35876C37.091 8.70349 36.0705 8.38123 34.7815 8.38123L34.8244 8.33826ZM34.3195 18.7904C33.4709 18.7904 32.8049 18.6078 32.3215 18.2318C31.8381 17.8558 31.591 17.3295 31.591 16.6527C31.591 16.0082 31.8059 15.5033 32.2463 15.1488C32.6867 14.7943 33.299 14.6117 34.094 14.6117H37.6604V16.1908C37.6604 16.9105 37.3488 17.5228 36.7258 18.0277C36.1028 18.5326 35.2971 18.7904 34.2981 18.7904H34.3195ZM46.2541 19.8754C47.5432 19.8754 48.5852 19.5424 49.3694 18.8763C50.1535 18.2103 50.551 17.2758 50.551 16.0726C50.551 15.8578 50.4436 15.7504 50.2395 15.7504H49.552C49.3801 15.7396 49.2834 15.8256 49.2512 16.0082C49.2404 16.8353 48.9612 17.4799 48.4133 17.9525C47.8654 18.4252 47.1457 18.6615 46.2541 18.6615C45.3625 18.6615 44.6428 18.4144 44.1057 17.9203C43.5686 17.4261 43.3 16.7709 43.3 15.9437V12.3344C43.3 11.5072 43.5686 10.8519 44.1057 10.3578C44.6428 9.86365 45.3518 9.61658 46.2434 9.61658C47.1242 9.61658 47.844 9.85291 48.3918 10.3148C48.9397 10.7767 49.219 11.432 49.2297 12.2699C49.2512 12.4418 49.3479 12.5277 49.5305 12.5277H50.218C50.4221 12.5385 50.5295 12.431 50.5295 12.2054C50.5295 11.0131 50.132 10.0785 49.3479 9.40173C48.5637 8.72498 47.5217 8.39197 46.2326 8.39197C44.9436 8.39197 43.9123 8.7572 43.1389 9.47693C42.3654 10.1967 41.9787 11.1527 41.9787 12.3451V15.9974C41.9787 17.1898 42.3654 18.1459 43.1389 18.8656C43.9123 19.5853 44.9436 19.9506 46.2326 19.9506L46.2541 19.8754ZM61.9807 19.2094L57.716 12.9896L61.7873 9.02576C61.8733 8.92908 61.9055 8.8324 61.8733 8.74646C61.841 8.66052 61.7658 8.61755 61.6477 8.61755H60.7453C60.5627 8.61755 60.4338 8.68201 60.3479 8.81091L55.0197 14.0316H54.8908V4.54626C54.8908 4.32068 54.7834 4.21326 54.5578 4.21326H53.9026C53.677 4.21326 53.5695 4.32068 53.5695 4.54626V19.2845C53.5695 19.5101 53.677 19.6176 53.9026 19.6176H54.5578C54.7834 19.6176 54.8908 19.5101 54.8908 19.2845V15.7504L56.7815 13.9027L60.4768 19.4027C60.5305 19.5424 60.6594 19.6176 60.8528 19.6176H61.7551C61.8733 19.6176 61.9485 19.5853 61.9914 19.5101C62.0344 19.4349 62.0237 19.3383 61.9699 19.2201L61.9807 19.2094Z" fill="#F2F2F2"/>
</svg>
