<svg width="19" height="19" viewBox="0 0 19 19" fill="none" xmlns="http://www.w3.org/2000/svg">
<path d="M8.99694 0.940376H5.72531C3.03469 0.940376 1.34769 2.84525 1.34769 5.542V12.8168C1.34769 15.5135 3.02681 17.4184 5.72531 17.4184H13.4463C16.1457 17.4184 17.8248 15.5135 17.8248 12.8168V9.29225M12.2107 2.52719L16.206 6.52244M6.6655 8.05579L13.2044 1.51691C14.019 0.703163 15.3394 0.703163 16.154 1.51691L17.2189 2.58179C18.0335 3.39641 18.0335 4.71766 17.2189 5.53141L10.6485 12.1018C10.2924 12.4579 9.80937 12.6583 9.30537 12.6583H6.02762L6.10987 9.35079C6.12212 8.86429 6.32075 8.40054 6.6655 8.05579Z" stroke="#333333" stroke-width="1.5" stroke-linecap="round" stroke-linejoin="round"/>
</svg>
