<svg width="23" height="18" viewBox="0 0 23 18" fill="none" xmlns="http://www.w3.org/2000/svg">
<path d="M15.9456 4.05632C16.8536 5.36232 17.3986 7.11432 17.3986 9.06432C17.3986 11.0143 16.8536 12.7653 15.9456 14.0713M19.3767 0.995819C20.8397 3.09982 21.7177 5.92182 21.7177 9.06382C21.7177 12.2058 20.8397 15.0288 19.3767 17.1328M11.9736 14.1377C11.9021 14.7236 11.8811 15.3 11.7212 15.8963C11.4667 16.7463 10.8008 17.2662 10.0824 17.2452C9.74164 17.2536 9.262 17.0461 8.93908 16.7746L5.17243 13.7153H3.074C2.06213 13.7153 1.38054 13.0257 1.24274 11.8896C1.04605 10.4914 1.06498 7.9656 1.24274 6.53918C1.38054 5.55399 2.06213 4.77737 3.074 4.77737H5.17243L8.86124 1.77046C9.18416 1.49692 9.74164 1.23909 10.0824 1.24643C10.8008 1.22547 11.4667 1.74636 11.7212 2.59529C11.8632 3.13819 11.9021 3.76913 11.9736 4.355C12.1451 5.72483 12.1451 12.7679 11.9736 14.1377Z" stroke="#A3A8AF" stroke-width="1.5" stroke-linecap="round" stroke-linejoin="round"/>
</svg>
