<svg width="17" height="18" viewBox="0 0 17 18" fill="none" xmlns="http://www.w3.org/2000/svg">
<path d="M14.9093 6.78467C14.9093 6.78467 14.4342 12.6778 14.1585 15.1602C14.0273 16.3458 13.2949 17.0405 12.0953 17.0624C9.81242 17.1035 7.52692 17.1062 5.24492 17.058C4.0908 17.0344 3.37067 16.3309 3.24205 15.1663C2.96467 12.662 2.49217 6.78467 2.49217 6.78467M16.1197 3.95974H1.28143M13.2605 3.95974C12.5737 3.95974 11.9822 3.47411 11.8474 2.80124L11.6348 1.73724C11.5035 1.24636 11.059 0.90686 10.5524 0.90686H6.84853C6.34191 0.90686 5.89741 1.24636 5.76616 1.73724L5.55353 2.80124C5.41878 3.47411 4.82728 3.95974 4.14041 3.95974" stroke="#333333" stroke-width="1.5" stroke-linecap="round" stroke-linejoin="round"/>
</svg>
